Coordinates
version=1
nRows=17
nColumns=24
inDegrees=yes

Units are S.I. units (second, meters, Newtons, ...)
Angles are in degrees.

endheader
time	pelvis_tilt	pelvis_list	pelvis_rotation	pelvis_tx	pelvis_ty	pelvis_tz	hip_flexion_r	hip_adduction_r	hip_rotation_r	knee_angle_r	ankle_angle_r	subtalar_angle_r	mtp_angle_r	hip_flexion_l	hip_adduction_l	hip_rotation_l	knee_angle_l	ankle_angle_l	subtalar_angle_l	mtp_angle_l	lumbar_extension	lumbar_bending	lumbar_rotation
      4.15000000	     -9.27238262	      8.20899692	      0.54440362	     -0.31924312	     -0.02358674	      0.61238265	     25.35941163	    -14.24595267	     -6.56796765	    -66.31294008	     -4.95453524	     -1.96237200	     13.65699166	     17.49940867	     12.59361426	     -3.39226345	    -18.88215457	      5.14966179	      8.99025862	      4.05284287	      8.69886377	     -9.91675895	     -3.31794577
      4.15500000	     -9.24656783	      7.90969779	      0.86854656	     -0.31328320	     -0.02257719	      0.61190823	     26.01236679	    -14.02508922	     -6.91257401	    -65.88135693	     -4.71292357	     -1.50116904	     13.94918802	     16.71319168	     12.46602284	     -2.62738122	    -18.36715075	      5.29423187	      8.72008636	      3.66261985	      8.63008502	     -9.66041909	     -3.80902415
      4.16000000	     -9.21715690	      7.62536773	      1.19237628	     -0.30733016	     -0.02161794	      0.61147102	     26.64659522	    -13.81916191	     -7.26493833	    -65.38187939	     -4.49537831	     -1.10360016	     14.22452471	     15.92264910	     12.33799337	     -1.85106896	    -17.84408836	      5.41524463	      8.44146024	      3.24126501	      8.55899343	     -9.42679648	     -4.29037936
      4.16500000	     -9.20003253	      7.33849341	      1.51261002	     -0.30141894	     -0.02074750	      0.61104927	     27.28504174	    -13.59847571	     -7.59284096	    -64.82070503	     -4.30471515	     -0.73506638	     14.44311943	     15.15946124	     12.18647596	     -1.12704438	    -17.33392389	      5.55324439	      8.20077060	      2.86942932	      8.49958936	     -9.18921430	     -4.78670268
      4.17000000	     -9.17869180	      7.06603895	      1.83445603	     -0.29549969	     -0.01993036	      0.61065398	     27.89979492	    -13.39361933	     -7.92954184	    -64.19382012	     -4.13493878	     -0.44773475	     14.61041164	     14.38708800	     12.03620914	     -0.39483433	    -16.81013289	      5.67648477	      7.94719309	      2.47813972	      8.44020074	     -8.96964455	     -5.26335938
      4.17500000	     -9.15382539	      6.81274034	      2.15209652	     -0.28955262	     -0.01916810	      0.61027048	     28.49003590	    -13.21270304	     -8.27648064	    -63.50124423	     -3.97497671	     -0.24379565	     14.72191276	     13.60287010	     11.89223601	      0.33592750	    -16.26910613	      5.78902026	      7.68132108	      2.03263225	      8.38642025	     -8.76945093	     -5.68784852
      4.18000000	     -9.13991482	      6.56500185	      2.45998537	     -0.28366191	     -0.01850001	      0.60993843	     29.08679860	    -13.02303214	     -8.59495252	    -62.75844544	     -3.83586855	     -0.09461957	     14.73847679	     12.84838293	     11.73018278	      1.00470434	    -15.74345681	      5.91402674	      7.47386703	      1.65269078	      8.33722218	     -8.57744161	     -6.13946460
      4.18500000	     -9.13147443	      6.32065368	      2.75522520	     -0.27781627	     -0.01790953	      0.60965559	     29.68030755	    -12.82312973	     -8.88996082	    -61.95996442	     -3.72511749	     -0.02130392	     14.66181215	     12.11479268	     11.55065170	      1.61948331	    -15.22691571	      6.03751499	      7.29732010	      1.34764232	      8.28793733	     -8.39037339	     -6.61274908
      4.19000000	     -9.11027621	      6.09815834	      3.04772527	     -0.27193632	     -0.01737078	      0.60938087	     30.23463107	    -12.65320007	     -9.20128590	    -61.10111692	     -3.61541644	     -0.03590963	     14.48905966	     11.35480524	     11.38273057	      2.24605922	    -14.68499823	      6.14360402	      7.09794900	      1.02084838	      8.23249870	     -8.22523978	     -7.03921531
      4.19500000	     -9.09030191	      5.89090978	      3.32858676	     -0.26606586	     -0.01691125	      0.60913497	     30.77482820	    -12.49535524	     -9.50476620	    -60.18919181	     -3.51669677	     -0.12323461	     14.21862022	     10.60204310	     11.21468302	      2.83377430	    -14.14432733	      6.25011242	      6.91811511	      0.70626699	      8.17846379	     -8.07515812	     -7.44433830
      4.20000000	     -9.07259955	      5.69288582	      3.59588958	     -0.26021591	     -0.01653026	      0.60891177	     31.30241633	    -12.34315964	     -9.80269291	    -59.22494048	     -3.43182583	     -0.28485376	     13.85601573	      9.85853390	     11.04096072	      3.37804938	    -13.60311988	      6.35284456	      6.76229574	      0.41809107	      8.12222214	     -7.92749586	     -7.83236382
      4.20500000	     -9.07069146	      5.49501280	      3.84670069	     -0.25432776	     -0.01620763	      0.60874125	     31.81693917	    -12.17647352	    -10.08115432	    -58.18177016	     -3.38745773	     -0.51862566	     13.44581631	      9.14745333	     10.85025282	      3.83365446	    -13.08306179	      6.45073793	      6.64215793	      0.19019676	      8.10001509	     -7.78775294	     -8.19238819
      4.21000000	     -9.06839122	      5.30230540	      4.08370916	     -0.24848244	     -0.01599007	      0.60859109	     32.32121993	    -12.01899740	    -10.37523153	    -57.09998992	     -3.35043397	     -0.84029862	     12.98069959	      8.43875534	     10.65185183	      4.27438952	    -12.55188683	      6.55928554	      6.54422265	     -0.00544561	      8.06036479	     -7.64305701	     -8.53488007
      4.21500000	     -8.97683429	      5.17880302	      4.35034689	     -0.24268098	     -0.01579460	      0.60841500	     32.70521686	    -11.95543867	    -10.69146961	    -55.99945385	     -3.25520106	     -1.14484073	     12.23953885	      7.61788657	     10.52459359	      4.84154091	    -12.00551160	      6.66814900	      6.35971965	     -0.31311490	      7.90292690	     -7.57663074	     -8.94115202
      4.22000000	     -8.96969040	      5.02369701	      4.57488827	     -0.23683595	     -0.01573430	      0.60831012	     33.16051669	    -11.83623830	    -10.99072469	    -54.82186874	     -3.22864682	     -1.56858163	     11.52416364	      6.91722161	     10.34566846	      5.24865943	    -11.49483609	      6.79517158	      6.28132101	     -0.53094289	      7.85589812	     -7.47158318	     -9.25159653
      4.22500000	     -8.94508183	      4.87693624	      4.79056781	     -0.23100559	     -0.01572714	      0.60820195	     33.57168690	    -11.72877062	    -11.30069889	    -53.58657162	     -3.20886200	     -2.00460521	     10.77777186	      6.20517702	     10.16788321	      5.62430968	    -10.99126194	      6.92110735	      6.20885726	     -0.72824111	      7.78671926	     -7.36833809	     -9.56427151
      4.23000000	     -8.90193751	      4.74073582	      5.00317462	     -0.22516669	     -0.01578551	      0.60811048	     33.93595709	    -11.63780271	    -11.63548313	    -52.30819405	     -3.17248433	     -2.43234014	      9.89967339	      5.47433163	      9.99217369	      6.01547428	    -10.49031407	      7.06122562	      6.12418202	     -0.94781048	      7.69148137	     -7.27518686	     -9.86568535
